HIERARCHY
ROOT mixamorig:Hips
{
	OFFSET 0.000000 99.791901 0.000000
	CHANNELS 6 Xposition Yposition Zposition Xrotation Yrotation Zrotation
	JOINT mixamorig:Spine
	{
		OFFSET 0.000038 9.923500 -1.227300
		CHANNELS 6 Xposition Yposition Zposition Xrotation Yrotation Zrotation
		JOINT mixamorig:Spine1
		{
			OFFSET -0.001154 11.645462 -1.422353
			CHANNELS 3 Xrotation Yrotation Zrotation
			JOINT mixamorig:Spine2
			{
				OFFSET -0.001065 13.360161 -1.626458
				CHANNELS 3 Xrotation Yrotation Zrotation
				JOINT mixamorig:Neck
				{
					OFFSET -0.001308 15.032516 0.792905
					CHANNELS 6 Xposition Yposition Zposition Xrotation Yrotation Zrotation
					JOINT mixamorig:Head
					{
						OFFSET -0.000902 10.321808 3.142400
						CHANNELS 6 Xposition Yposition Zposition Xrotation Yrotation Zrotation
						JOINT mixamorig:HeadTop_End
						{
							OFFSET -0.001416 18.474701 6.636400
							CHANNELS 6 Xposition Yposition Zposition Xrotation Yrotation Zrotation
							End Site
							{
								OFFSET -0.001707 19.630493 0.000000
							}
						}
					}
				}
				JOINT mixamorig:LeftShoulder
				{
					OFFSET 6.105007 9.110962 0.705601
					CHANNELS 6 Xposition Yposition Zposition Xrotation Yrotation Zrotation
					JOINT mixamorig:LeftArm
					{
						OFFSET 12.655048 -0.266434 -2.600898
						CHANNELS 3 Xrotation Yrotation Zrotation
						JOINT mixamorig:LeftForeArm
						{
							OFFSET 27.404696 0.000000 0.000000
							CHANNELS 3 Xrotation Yrotation Zrotation
							JOINT mixamorig:LeftHand
							{
								OFFSET 27.614513 0.000000 0.000000
								CHANNELS 3 Xrotation Yrotation Zrotation
								JOINT mixamorig:LeftHandThumb1
								{
									OFFSET 3.788795 -2.167099 3.003002
									CHANNELS 6 Xposition Yposition Zposition Xrotation Yrotation Zrotation
									JOINT mixamorig:LeftHandThumb2
									{
										OFFSET 3.675461 -2.122025 2.122029
										CHANNELS 6 Xposition Yposition Zposition Xrotation Yrotation Zrotation
										JOINT mixamorig:LeftHandThumb3
										{
											OFFSET 3.394363 -1.959732 1.959735
											CHANNELS 6 Xposition Yposition Zposition Xrotation Yrotation Zrotation
											JOINT mixamorig:LeftHandThumb4
											{
												OFFSET 2.679405 -1.546951 1.546957
												CHANNELS 6 Xposition Yposition Zposition Xrotation Yrotation Zrotation
												End Site
												{
													OFFSET 2.400513 -1.530563 1.964770
												}
											}
										}
									}
								}
								JOINT mixamorig:LeftHandIndex1
								{
									OFFSET 12.266594 -0.231796 2.822001
									CHANNELS 6 Xposition Yposition Zposition Xrotation Yrotation Zrotation
									JOINT mixamorig:LeftHandIndex2
									{
										OFFSET 3.891998 0.000000 0.000000
										CHANNELS 3 Xrotation Yrotation Zrotation
										JOINT mixamorig:LeftHandIndex3
										{
											OFFSET 3.415207 0.000000 0.000000
											CHANNELS 3 Xrotation Yrotation Zrotation
											JOINT mixamorig:LeftHandIndex4
											{
												OFFSET 3.077995 0.000000 0.000000
												CHANNELS 3 Xrotation Yrotation Zrotation
												End Site
												{
													OFFSET 3.078003 0.000000 0.000140
												}
											}
										}
									}
								}
								JOINT mixamorig:LeftHandMiddle1
								{
									OFFSET 12.775497 0.000000 0.000000
									CHANNELS 6 Xposition Yposition Zposition Xrotation Yrotation Zrotation
									JOINT mixamorig:LeftHandMiddle2
									{
										OFFSET 3.613998 0.000000 0.000000
										CHANNELS 3 Xrotation Yrotation Zrotation
										JOINT mixamorig:LeftHandMiddle3
										{
											OFFSET 3.459793 0.000000 0.000000
											CHANNELS 3 Xrotation Yrotation Zrotation
											JOINT mixamorig:LeftHandMiddle4
											{
												OFFSET 3.680214 0.000000 0.000000
												CHANNELS 3 Xrotation Yrotation Zrotation
												End Site
												{
													OFFSET 3.680199 0.000031 -0.004817
												}
											}
										}
									}
								}
								JOINT mixamorig:LeftHandRing1
								{
									OFFSET 12.146996 0.009995 -2.216599
									CHANNELS 6 Xposition Yposition Zposition Xrotation Yrotation Zrotation
									JOINT mixamorig:LeftHandRing2
									{
										OFFSET 3.601196 0.000000 0.000000
										CHANNELS 3 Xrotation Yrotation Zrotation
										JOINT mixamorig:LeftHandRing3
										{
											OFFSET 3.307304 0.000000 0.000000
											CHANNELS 3 Xrotation Yrotation Zrotation
											JOINT mixamorig:LeftHandRing4
											{
												OFFSET 3.660095 0.000000 0.000000
												CHANNELS 3 Xrotation Yrotation Zrotation
												End Site
												{
													OFFSET 3.660095 -0.000107 0.005639
												}
											}
										}
									}
								}
								JOINT mixamorig:LeftHandPinky1
								{
									OFFSET 10.908195 -0.226105 -4.725800
									CHANNELS 6 Xposition Yposition Zposition Xrotation Yrotation Zrotation
									JOINT mixamorig:LeftHandPinky2
									{
										OFFSET 4.136703 0.000000 0.000000
										CHANNELS 3 Xrotation Yrotation Zrotation
										JOINT mixamorig:LeftHandPinky3
										{
											OFFSET 2.594803 0.000000 0.000000
											CHANNELS 3 Xrotation Yrotation Zrotation
											JOINT mixamorig:LeftHandPinky4
											{
												OFFSET 2.923904 0.000000 0.000000
												CHANNELS 3 Xrotation Yrotation Zrotation
												End Site
												{
													OFFSET 2.923897 0.000015 -0.003363
												}
											}
										}
									}
								}
							}
						}
					}
				}
				JOINT mixamorig:RightShoulder
				{
					OFFSET -6.106493 9.110001 0.705582
					CHANNELS 6 Xposition Yposition Zposition Xrotation Yrotation Zrotation
					JOINT mixamorig:RightArm
					{
						OFFSET -12.655064 -0.265533 -2.600914
						CHANNELS 3 Xrotation Yrotation Zrotation
						JOINT mixamorig:RightForeArm
						{
							OFFSET -27.404697 0.000000 -0.000000
							CHANNELS 3 Xrotation Yrotation Zrotation
							JOINT mixamorig:RightHand
							{
								OFFSET -27.614510 0.000000 -0.000000
								CHANNELS 3 Xrotation Yrotation Zrotation
								JOINT mixamorig:RightHandThumb1
								{
									OFFSET -3.788803 -2.167099 3.003001
									CHANNELS 6 Xposition Yposition Zposition Xrotation Yrotation Zrotation
									JOINT mixamorig:RightHandThumb2
									{
										OFFSET -3.675461 -2.122025 2.122028
										CHANNELS 6 Xposition Yposition Zposition Xrotation Yrotation Zrotation
										JOINT mixamorig:RightHandThumb3
										{
											OFFSET -3.394363 -1.959732 1.959735
											CHANNELS 6 Xposition Yposition Zposition Xrotation Yrotation Zrotation
											JOINT mixamorig:RightHandThumb4
											{
												OFFSET -2.679405 -1.546951 1.546957
												CHANNELS 6 Xposition Yposition Zposition Xrotation Yrotation Zrotation
												End Site
												{
													OFFSET -2.398972 -1.531448 1.965965
												}
											}
										}
									}
								}
								JOINT mixamorig:RightHandIndex1
								{
									OFFSET -12.266602 -0.231796 2.822000
									CHANNELS 6 Xposition Yposition Zposition Xrotation Yrotation Zrotation
									JOINT mixamorig:RightHandIndex2
									{
										OFFSET -3.891998 0.000000 0.000000
										CHANNELS 3 Xrotation Yrotation Zrotation
										JOINT mixamorig:RightHandIndex3
										{
											OFFSET -3.415207 0.000000 0.000000
											CHANNELS 3 Xrotation Yrotation Zrotation
											JOINT mixamorig:RightHandIndex4
											{
												OFFSET -3.077995 0.000000 0.000000
												CHANNELS 3 Xrotation Yrotation Zrotation
												End Site
												{
													OFFSET -3.077995 0.000504 -0.008460
												}
											}
										}
									}
								}
								JOINT mixamorig:RightHandMiddle1
								{
									OFFSET -12.775505 0.000000 -0.000000
									CHANNELS 6 Xposition Yposition Zposition Xrotation Yrotation Zrotation
									JOINT mixamorig:RightHandMiddle2
									{
										OFFSET -3.613998 0.000000 0.000000
										CHANNELS 3 Xrotation Yrotation Zrotation
										JOINT mixamorig:RightHandMiddle3
										{
											OFFSET -3.459793 0.000000 0.000000
											CHANNELS 3 Xrotation Yrotation Zrotation
											JOINT mixamorig:RightHandMiddle4
											{
												OFFSET -3.680214 0.000000 0.000000
												CHANNELS 3 Xrotation Yrotation Zrotation
												End Site
												{
													OFFSET -3.680176 0.000290 0.012574
												}
											}
										}
									}
								}
								JOINT mixamorig:RightHandRing1
								{
									OFFSET -12.147003 0.009995 -2.216600
									CHANNELS 6 Xposition Yposition Zposition Xrotation Yrotation Zrotation
									JOINT mixamorig:RightHandRing2
									{
										OFFSET -3.601196 0.000000 0.000000
										CHANNELS 3 Xrotation Yrotation Zrotation
										JOINT mixamorig:RightHandRing3
										{
											OFFSET -3.307304 0.000000 0.000000
											CHANNELS 3 Xrotation Yrotation Zrotation
											JOINT mixamorig:RightHandRing4
											{
												OFFSET -3.660103 0.000000 0.000000
												CHANNELS 3 Xrotation Yrotation Zrotation
												End Site
												{
													OFFSET -3.660103 0.000427 0.002204
												}
											}
										}
									}
								}
								JOINT mixamorig:RightHandPinky1
								{
									OFFSET -10.908203 -0.226105 -4.725801
									CHANNELS 6 Xposition Yposition Zposition Xrotation Yrotation Zrotation
									JOINT mixamorig:RightHandPinky2
									{
										OFFSET -4.136703 0.000000 0.000000
										CHANNELS 3 Xrotation Yrotation Zrotation
										JOINT mixamorig:RightHandPinky3
										{
											OFFSET -2.594803 0.000000 0.000000
											CHANNELS 3 Xrotation Yrotation Zrotation
											JOINT mixamorig:RightHandPinky4
											{
												OFFSET -2.923904 0.000000 0.000000
												CHANNELS 3 Xrotation Yrotation Zrotation
												End Site
												{
													OFFSET -2.923866 0.000595 -0.012896
												}
											}
										}
									}
								}
							}
						}
					}
				}
			}
		}
	}
	JOINT mixamorig:LeftUpLeg
	{
		OFFSET 9.124481 -6.656403 -0.055368
		CHANNELS 6 Xposition Yposition Zposition Xrotation Yrotation Zrotation
		JOINT mixamorig:LeftLeg
		{
			OFFSET 0.244688 -40.595383 -0.515629
			CHANNELS 3 Xrotation Yrotation Zrotation
			JOINT mixamorig:LeftFoot
			{
				OFFSET -0.244684 -42.047905 -2.059130
				CHANNELS 3 Xrotation Yrotation Zrotation
				JOINT mixamorig:LeftToeBase
				{
					OFFSET 0.373535 -7.208565 13.966596
					CHANNELS 3 Xrotation Yrotation Zrotation
					JOINT mixamorig:LeftToe_End
					{
						OFFSET -0.142057 -0.175231 9.997458
						CHANNELS 3 Xrotation Yrotation Zrotation
						End Site
						{
							OFFSET -0.142057 -0.175231 9.997458
						}
					}
				}
			}
		}
	}
	JOINT mixamorig:RightUpLeg
	{
		OFFSET -9.124419 -6.656395 -0.055432
		CHANNELS 6 Xposition Yposition Zposition Xrotation Yrotation Zrotation
		JOINT mixamorig:RightLeg
		{
			OFFSET -0.244683 -40.595413 -0.514284
			CHANNELS 3 Xrotation Yrotation Zrotation
			JOINT mixamorig:RightFoot
			{
				OFFSET 0.244687 -42.047836 -2.060526
				CHANNELS 3 Xrotation Yrotation Zrotation
				JOINT mixamorig:RightToeBase
				{
					OFFSET -0.373540 -7.208565 13.966594
					CHANNELS 3 Xrotation Yrotation Zrotation
					JOINT mixamorig:RightToe_End
					{
						OFFSET 0.141792 -0.175015 9.997463
						CHANNELS 3 Xrotation Yrotation Zrotation
						End Site
						{
							OFFSET 0.141792 -0.175015 9.997463
						}
					}
				}
			}
		}
	}
}
MOTION
Frames: 4
Frame Time: 0.033333
0.228714 92.862625 -1.038060 -6.079222 -42.951334 -4.032306 0.000039 9.923506 -1.227299 5.831581 4.563904 -1.214708 11.836545 9.037604 -3.083965 11.836544 9.037610 -3.083966 -0.001309 15.032517 0.792907 -4.303060 -1.272951 0.206311 -0.000902 10.321815 3.142392 -6.271928 20.437803 -0.377166 -0.001415 18.474716 6.636396 -0.000001 0.000000 0.000000 6.105002 9.110961 0.705604 1.392481 -0.695812 -7.879413 -14.260140 2.394359 -63.277120 9.865068 -47.524921 5.927911 16.172894 0.915177 18.795427 3.788808 -2.167111 3.003005 9.163587 4.814135 -5.499039 3.675485 -2.122019 2.122026 -0.335329 0.032574 0.783665 3.394365 -1.959743 1.959736 -0.000004 -0.000006 0.000003 2.679411 -1.546934 1.546954 -0.000000 -0.000003 0.000001 12.266603 -0.231788 2.822001 -0.902012 -6.980949 -3.808411 0.033387 0.804248 -16.418959 -0.000007 -0.000004 0.000004 -0.000000 0.000002 0.000000 12.775502 0.000009 0.000000 1.947839 9.683083 -14.539796 -0.456445 -1.565442 -21.881040 0.000004 0.000001 0.000001 0.000001 0.000002 0.000001 12.147025 0.010012 -2.216607 2.605830 14.896815 -31.345261 -0.576894 -2.712409 -32.011560 -0.000002 -0.000003 -0.000001 0.000003 0.000001 0.000002 10.908200 -0.226092 -4.725800 4.170544 18.495018 -34.987337 -0.706853 -5.788633 -39.372974 0.000001 0.000002 -0.000002 0.000003 0.000000 -0.000003 -6.106495 9.109994 0.705586 1.410872 9.461272 9.791300 1.219996 -24.270741 60.532920 -6.660701 41.858428 8.043808 6.225299 12.322336 11.673335 -3.788795 -2.167109 3.003005 -8.895882 -4.903140 -0.383745 -3.675439 -2.122009 2.122033 7.904821 -19.192475 -2.856824 -3.394365 -1.959720 1.959728 0.000005 0.000004 -0.000015 -2.679380 -1.546952 1.546953 0.000005 0.000001 -0.000004 -12.266600 -0.231777 2.822002 -1.085494 -1.215491 4.525264 0.142132 -1.115563 16.942612 -0.000000 -0.000001 0.000000 0.000001 -0.000003 0.000000 -12.775511 -0.000007 -0.000001 -0.663626 -2.903883 12.731620 -0.660600 1.813461 30.579027 -0.000001 0.000001 0.000002 -0.000002 -0.000000 -0.000001 -12.147017 0.009997 -2.216601 2.423619 -7.404541 21.763366 -0.989746 3.764325 37.431189 -0.000000 -0.000007 0.000004 -0.000000 0.000000 0.000000 -10.908201 -0.226108 -4.725802 3.481032 -10.055054 24.322795 -1.458372 7.872025 41.092023 -0.000005 0.000011 -0.000007 -0.000002 -0.000002 -0.000001 9.124485 -6.656404 -0.055367 -26.960597 5.838409 13.803400 34.838503 -14.262454 -0.205133 -5.307476 0.760880 -7.695047 -2.319085 -3.217006 0.802957 -0.000000 0.000004 0.000000 -9.124420 -6.656391 -0.055432 -5.523748 -13.614483 -15.257287 34.183809 -9.081207 -0.400515 -20.991415 -4.010786 16.575954 -1.784980 -0.356743 0.333172 0.000000 -0.000000 -0.000000 
0.241430 92.871323 -1.048782 -6.109703 -42.975339 -4.054825 0.000039 9.923499 -1.227299 5.829158 4.566379 -1.215707 11.831809 9.042429 -3.085516 11.831807 9.042425 -3.085518 -0.001308 15.032520 0.792907 -4.267543 -1.279934 0.198309 -0.000902 10.321799 3.142400 -6.237609 20.414257 -0.374517 -0.001414 18.474701 6.636405 0.000000 -0.000000 -0.000000 6.105007 9.110982 0.705602 1.391019 -0.717632 -7.874936 -14.258891 2.381525 -63.261909 9.861875 -47.539390 5.917347 16.156208 0.917800 18.774742 3.788798 -2.167084 3.003009 9.281857 4.879284 -5.547114 3.675464 -2.122010 2.122025 -0.330762 0.030798 0.779779 3.394360 -1.959740 1.959735 -0.000005 -0.000002 -0.000002 2.679407 -1.546950 1.546963 -0.000000 0.000003 -0.000001 12.266606 -0.231799 2.822004 -0.919441 -6.967755 -3.890471 0.033989 0.803842 -16.420938 -0.000005 -0.000002 0.000001 0.000001 -0.000002 0.000000 12.775498 0.000022 0.000007 1.946942 9.669251 -14.575499 -0.456942 -1.566357 -21.890415 0.000001 0.000002 0.000001 -0.000001 -0.000001 -0.000001 12.147022 0.010006 -2.216605 2.601660 14.884005 -31.363757 -0.577256 -2.713183 -32.026074 0.000000 -0.000003 -0.000001 0.000002 0.000001 -0.000000 10.908198 -0.226103 -4.725800 4.172026 18.486780 -35.025944 -0.706593 -5.789177 -39.392061 -0.000000 0.000000 -0.000004 0.000002 -0.000001 -0.000000 -6.106493 9.109994 0.705588 1.417099 9.439857 9.751641 1.221091 -24.236464 60.544655 -6.621308 41.873523 8.057753 6.206139 12.298786 11.635213 -3.788804 -2.167102 3.002996 -8.997406 -5.023309 -0.471834 -3.675440 -2.122025 2.122027 7.976994 -19.172645 -2.783772 -3.394365 -1.959704 1.959738 0.000005 0.000004 -0.000015 -2.679403 -1.546950 1.546949 0.000003 0.000003 -0.000004 -12.266618 -0.231788 2.821992 -1.083492 -1.196270 4.445418 0.145204 -1.118558 16.906412 0.000001 -0.000003 -0.000001 0.000001 -0.000001 -0.000001 -12.775517 0.000001 -0.000004 -0.660764 -2.917120 12.771861 -0.655763 1.809383 30.522425 0.000000 -0.000000 -0.000002 0.000000 -0.000002 -0.000001 -12.147026 0.010013 -2.216609 2.426626 -7.414337 21.765496 -0.988461 3.760618 37.385088 0.000001 -0.000005 0.000002 0.000000 0.000000 -0.000001 -10.908220 -0.226098 -4.725807 3.483456 -10.056865 24.337482 -1.456856 7.873425 41.113542 -0.000004 0.000014 -0.000013 0.000001 -0.000003 -0.000000 9.124485 -6.656404 -0.055369 -26.921413 5.849321 13.803882 34.795914 -14.242088 -0.202020 -5.282057 0.760241 -7.704737 -2.304034 -3.208586 0.816908 -0.000000 0.000002 0.000000 -9.124420 -6.656413 -0.055433 -5.513314 -13.619232 -15.265720 34.162595 -9.048197 -0.393387 -20.970813 -4.004218 16.556771 -1.786191 -0.354546 0.331090 -0.000000 -0.000001 -0.000000 
0.255951 92.880508 -1.055341 -6.141482 -42.991755 -4.081725 0.000038 9.923507 -1.227301 5.823778 4.567095 -1.213576 11.820850 9.044224 -3.080682 11.820854 9.044236 -3.080686 -0.001310 15.032518 0.792898 -4.203139 -1.285045 0.185841 -0.000902 10.321823 3.142401 -6.168238 20.385425 -0.352580 -0.001416 18.474716 6.636401 0.000001 0.000000 -0.000000 6.105002 9.110944 0.705598 1.393554 -0.717740 -7.838867 -14.264839 2.366016 -63.277687 9.844493 -47.554284 5.903700 16.138057 0.923874 18.709340 3.788800 -2.167100 3.003006 9.355839 4.936128 -5.574088 3.675469 -2.121996 2.122027 -0.324355 0.039358 0.769210 3.394365 -1.959727 1.959734 -0.000004 -0.000004 0.000003 2.679400 -1.546938 1.546958 0.000001 0.000004 -0.000004 12.266602 -0.231792 2.822001 -0.929953 -6.968567 -3.950575 0.032016 0.798603 -16.466457 -0.000006 -0.000006 0.000003 0.000002 -0.000000 0.000001 12.775497 0.000018 0.000003 1.941437 9.642750 -14.612771 -0.456601 -1.567560 -21.900785 0.000003 0.000003 -0.000001 0.000001 0.000001 0.000001 12.147031 0.010006 -2.216605 2.594523 14.862640 -31.420311 -0.577900 -2.713974 -32.041968 0.000001 -0.000003 -0.000001 -0.000001 -0.000002 -0.000002 10.908200 -0.226093 -4.725806 4.160211 18.460000 -35.061021 -0.707348 -5.789070 -39.402050 -0.000002 0.000001 -0.000004 0.000000 0.000000 -0.000001 -6.106496 9.109993 0.705579 1.428260 9.401932 9.675298 1.236563 -24.178489 60.587104 -6.543161 41.889718 8.097727 6.160838 12.242326 11.556514 -3.788786 -2.167113 3.003003 -9.037083 -5.083250 -0.503010 -3.675464 -2.122030 2.122026 8.027811 -19.238131 -2.727545 -3.394381 -1.959718 1.959737 0.000003 0.000004 -0.000012 -2.679399 -1.546934 1.546953 0.000001 0.000002 -0.000003 -12.266593 -0.231778 2.821999 -1.077370 -1.183746 4.324598 0.148278 -1.121606 16.867822 -0.000000 0.000001 -0.000001 -0.000001 -0.000000 -0.000001 -12.775498 -0.000000 -0.000001 -0.656741 -2.930646 12.773147 -0.656818 1.808015 30.507706 -0.000000 0.000001 0.000003 0.000000 0.000001 0.000001 -12.147001 0.010009 -2.216602 2.430367 -7.425807 21.768482 -0.987663 3.760583 37.380369 -0.000001 -0.000008 0.000004 -0.000000 -0.000002 -0.000002 -10.908197 -0.226100 -4.725804 3.485374 -10.054582 24.360831 -1.455524 7.877208 41.149680 -0.000005 0.000015 -0.000010 -0.000002 -0.000001 -0.000000 9.124482 -6.656397 -0.055370 -26.882846 5.856162 13.799786 34.758904 -14.222961 -0.192607 -5.259710 0.759562 -7.713449 -2.285123 -3.205304 0.853461 -0.000000 -0.000001 -0.000000 -9.124420 -6.656389 -0.055432 -5.491653 -13.623886 -15.269959 34.131217 -9.024936 -0.384889 -20.945202 -3.997549 16.542045 -1.784959 -0.358923 0.335301 0.000000 0.000002 0.000000 
0.270462 92.890846 -1.054777 -6.171435 -42.989723 -4.111649 0.000038 9.923506 -1.227300 5.814007 4.563267 -1.207351 11.800611 9.037673 -3.067488 11.800621 9.037666 -3.067487 -0.001307 15.032545 0.792903 -4.099253 -1.285163 0.175872 -0.000904 10.321821 3.142399 -6.042407 20.362464 -0.303961 -0.001416 18.474716 6.636406 0.000001 0.000000 0.000000 6.105009 9.110975 0.705605 1.400564 -0.685284 -7.754056 -14.265177 2.354351 -63.339110 9.824307 -47.590661 5.891420 16.115278 0.928010 18.594041 3.788795 -2.167091 3.002998 9.391039 4.980862 -5.579219 3.675458 -2.122030 2.122029 -0.316389 0.054390 0.760580 3.394360 -1.959750 1.959733 -0.000005 -0.000004 0.000008 2.679403 -1.546932 1.546960 -0.000002 0.000002 0.000004 12.266601 -0.231781 2.822001 -0.931604 -6.975846 -3.979634 0.029153 0.790697 -16.535473 -0.000006 -0.000006 0.000005 -0.000005 -0.000002 0.000001 12.775509 0.000019 -0.000002 1.931506 9.605859 -14.659007 -0.456489 -1.569796 -21.921144 0.000001 0.000001 0.000000 -0.000000 -0.000000 0.000002 12.147027 0.010018 -2.216606 2.577000 14.818352 -31.485762 -0.579088 -2.714623 -32.057855 -0.000002 -0.000004 -0.000001 0.000001 -0.000000 -0.000002 10.908217 -0.226094 -4.725808 4.135515 18.419984 -35.094533 -0.708478 -5.789084 -39.424122 -0.000001 0.000002 -0.000003 -0.000001 0.000000 0.000001 -6.106493 9.109991 0.705581 1.444845 9.345357 9.556353 1.282311 -24.106132 60.680234 -6.434267 41.926409 8.157814 6.084671 12.154186 11.434432 -3.788796 -2.167112 3.002999 -9.039914 -5.133960 -0.516157 -3.675452 -2.122030 2.122027 8.067192 -19.334819 -2.701842 -3.394361 -1.959720 1.959735 0.000005 0.000008 -0.000014 -2.679411 -1.546951 1.546961 0.000001 0.000002 -0.000004 -12.266605 -0.231786 2.821995 -1.071337 -1.175593 4.217679 0.148622 -1.121963 16.863869 0.000000 -0.000001 -0.000000 0.000000 -0.000001 0.000000 -12.775500 -0.000001 -0.000005 -0.653593 -2.940075 12.763101 -0.658785 1.806223 30.490948 -0.000002 -0.000000 0.000004 -0.000002 -0.000001 0.000005 -12.147014 0.010014 -2.216607 2.433292 -7.433785 21.752114 -0.986295 3.759815 37.366920 0.000001 -0.000007 0.000001 0.000000 -0.000001 -0.000001 -10.908209 -0.226082 -4.725805 3.487401 -10.053304 24.381665 -1.453729 7.877378 41.141341 -0.000005 0.000011 -0.000009 -0.000001 -0.000003 0.000003 9.124482 -6.656404 -0.055368 -26.847428 5.858303 13.791135 34.727602 -14.215258 -0.179350 -5.240631 0.758371 -7.716588 -2.261881 -3.208305 0.908030 0.000000 0.000002 0.000000 -9.124415 -6.656406 -0.055432 -5.448559 -13.627967 -15.262322 34.079809 -9.026765 -0.378655 -20.911775 -3.992170 16.539073 -1.782949 -0.364637 0.340955 0.000000 0.000002 -0.000000 
